<svg width="20" height="26" viewBox="0 0 20 26" fill="none" xmlns="http://www.w3.org/2000/svg">
<path d="M19.2853 25.8527C19.0696 25.9621 18.8274 26.0122 18.5848 25.9975C18.3421 25.9828 18.1081 25.904 17.9079 25.7695L0.574034 14.0689C0.39691 13.9493 0.252167 13.7895 0.152193 13.6034C0.0522213 13.4173 0 13.2103 0 13.0002C0 12.7901 0.0522213 12.5832 0.152193 12.3971C0.252167 12.211 0.39691 12.0512 0.574034 11.9316L17.9079 0.230974C18.108 0.096017 18.3421 0.016989 18.5849 0.00244642C18.8277 -0.0120961 19.0699 0.0384011 19.2854 0.14847C19.5009 0.25854 19.6814 0.423986 19.8073 0.626896C19.9333 0.829807 19.9999 1.06245 20 1.29963V24.7009C20 24.9382 19.9335 25.171 19.8075 25.374C19.6815 25.5771 19.5009 25.7426 19.2853 25.8527Z" fill="white"/>
</svg>
