<svg width="192" height="31" viewBox="0 0 192 31" fill="none" xmlns="http://www.w3.org/2000/svg">
<path d="M11.24 30.6398C9.26665 30.6398 7.49332 30.2131 5.91999 29.3598C4.34666 28.5064 3.09332 27.2798 2.15999 25.6798C1.25332 24.0531 0.799988 22.1064 0.799988 19.8398V0.959778H4.47999V13.3998H4.55999C5.01332 12.5731 5.59999 11.8531 6.31999 11.2398C7.06665 10.6264 7.90666 10.1464 8.83999 9.79978C9.79999 9.45311 10.8 9.27978 11.84 9.27978C13.7333 9.27978 15.4267 9.70644 16.92 10.5598C18.4133 11.4131 19.5867 12.6264 20.44 14.1998C21.32 15.7464 21.76 17.5864 21.76 19.7198C21.76 21.3998 21.4933 22.9198 20.96 24.2798C20.4533 25.6131 19.7333 26.7598 18.8 27.7198C17.8667 28.6798 16.76 29.4131 15.48 29.9198C14.2 30.3998 12.7867 30.6398 11.24 30.6398ZM11.24 27.4798C12.4933 27.4798 13.6267 27.1731 14.64 26.5598C15.68 25.9464 16.5067 25.0798 17.12 23.9598C17.7333 22.8398 18.04 21.5064 18.04 19.9598C18.04 18.4664 17.7333 17.1598 17.12 16.0398C16.5333 14.9198 15.7333 14.0398 14.72 13.3998C13.7067 12.7598 12.56 12.4398 11.28 12.4398C10.0267 12.4398 8.87999 12.7464 7.83999 13.3598C6.82665 13.9731 6.01332 14.8531 5.39999 15.9998C4.81332 17.1198 4.51999 18.4531 4.51999 19.9998C4.51999 21.5198 4.81332 22.8398 5.39999 23.9598C6.01332 25.0798 6.82665 25.9464 7.83999 26.5598C8.87999 27.1731 10.0133 27.4798 11.24 27.4798Z" fill="white"/>
<path d="M25.9069 30.1598V15.5598C25.9069 13.7464 26.4135 12.3331 27.4269 11.3198C28.4669 10.2798 29.8935 9.75978 31.7069 9.75978H35.9069V12.9198H32.3869C31.5069 12.9198 30.8135 13.1731 30.3069 13.6798C29.8269 14.1864 29.5869 14.8931 29.5869 15.7998V30.1598H25.9069Z" fill="white"/>
<path d="M49.2281 30.1598C46.9881 30.1598 45.0014 29.7464 43.2681 28.9198C41.5348 28.0664 40.1748 26.8798 39.1881 25.3598C38.2281 23.8131 37.7481 22.0131 37.7481 19.9598C37.7481 17.9331 38.1614 16.1198 38.9881 14.5198C39.8148 12.8931 40.9614 11.6131 42.4281 10.6798C43.8948 9.74644 45.6014 9.27978 47.5481 9.27978C49.6548 9.27978 51.4014 9.73311 52.7881 10.6398C54.2014 11.5464 55.2548 12.7731 55.9481 14.3198C56.6414 15.8398 56.9881 17.5464 56.9881 19.4398C56.9881 19.7331 56.9748 20.0398 56.9481 20.3598C56.9481 20.6798 56.9214 20.9598 56.8681 21.1998H41.6681C41.8014 22.4531 42.2148 23.5198 42.9081 24.3998C43.6014 25.2531 44.4814 25.9064 45.5481 26.3598C46.6414 26.7864 47.8414 26.9998 49.1481 26.9998H54.4681V30.1598H49.2281ZM41.6281 18.5998H53.2681C53.2681 18.0931 53.2148 17.5598 53.1081 16.9998C53.0014 16.4131 52.8148 15.8531 52.5481 15.3198C52.2814 14.7598 51.9214 14.2664 51.4681 13.8398C51.0414 13.3864 50.4948 13.0264 49.8281 12.7598C49.1881 12.4931 48.4281 12.3598 47.5481 12.3598C46.6148 12.3598 45.7881 12.5464 45.0681 12.9198C44.3748 13.2664 43.7748 13.7464 43.2681 14.3598C42.7614 14.9464 42.3748 15.6131 42.1081 16.3598C41.8414 17.1064 41.6814 17.8531 41.6281 18.5998Z" fill="white"/>
<path d="M69.7206 30.6398C67.7473 30.6398 66.0406 30.1731 64.6006 29.2398C63.1606 28.2798 62.0539 26.9864 61.2806 25.3598C60.5073 23.7331 60.1206 21.9331 60.1206 19.9598C60.1206 17.9598 60.5473 16.1598 61.4006 14.5598C62.2539 12.9331 63.4806 11.6531 65.0806 10.7198C66.6806 9.75978 68.6006 9.27978 70.8406 9.27978C73.0006 9.27978 74.8539 9.74644 76.4006 10.6798C77.9473 11.6131 79.1339 12.8798 79.9606 14.4798C80.8139 16.0798 81.2406 17.8664 81.2406 19.8398V30.1598H77.5206V25.9998H77.4406C77.0406 26.7731 76.4939 27.5198 75.8006 28.2398C75.1339 28.9331 74.2939 29.5064 73.2806 29.9598C72.2673 30.4131 71.0806 30.6398 69.7206 30.6398ZM70.6806 27.4798C72.0139 27.4798 73.1873 27.1598 74.2006 26.5198C75.2406 25.8531 76.0406 24.9464 76.6006 23.7998C77.1873 22.6264 77.4806 21.3198 77.4806 19.8798C77.4806 18.4664 77.2006 17.1998 76.6406 16.0798C76.1073 14.9598 75.3339 14.0798 74.3206 13.4398C73.3073 12.7731 72.1206 12.4398 70.7606 12.4398C69.3206 12.4398 68.0806 12.7731 67.0406 13.4398C66.0273 14.1064 65.2406 15.0131 64.6806 16.1598C64.1473 17.2798 63.8806 18.5598 63.8806 19.9998C63.8806 21.3864 64.1473 22.6531 64.6806 23.7998C65.214 24.9198 65.9873 25.8131 67.0006 26.4798C68.0139 27.1464 69.2406 27.4798 70.6806 27.4798Z" fill="white"/>
<path d="M86.66 30.1598V0.959778H90.34V18.3198H95.94L101.3 9.75978H105.38L99.58 18.8798C101.5 19.4398 102.993 20.4931 104.06 22.0398C105.153 23.5598 105.7 25.3331 105.7 27.3598V30.1598H101.98V27.3598C101.98 26.2398 101.727 25.2398 101.22 24.3598C100.74 23.4798 100.06 22.7864 99.18 22.2798C98.3 21.7464 97.2867 21.4798 96.14 21.4798H90.34V30.1598H86.66Z" fill="white"/>
<path d="M117.477 30.1598C115.664 30.1598 114.237 29.6398 113.197 28.5998C112.184 27.5598 111.677 26.1464 111.677 24.3598V4.63978H115.357V24.1198C115.357 24.9998 115.597 25.7064 116.077 26.2398C116.584 26.7464 117.277 26.9998 118.157 26.9998H122.277V30.1598H117.477ZM108.157 12.9198V9.75978H122.357V12.9198H108.157Z" fill="white"/>
<path d="M126.366 30.1598V9.75978H130.086V30.1598H126.366ZM128.246 6.51978C127.579 6.51978 126.993 6.27978 126.486 5.79978C126.006 5.29311 125.766 4.70644 125.766 4.03978C125.766 3.37311 126.006 2.79978 126.486 2.31978C126.993 1.81311 127.579 1.55978 128.246 1.55978C128.913 1.55978 129.486 1.81311 129.966 2.31978C130.473 2.79978 130.726 3.37311 130.726 4.03978C130.726 4.70644 130.473 5.29311 129.966 5.79978C129.486 6.27978 128.913 6.51978 128.246 6.51978Z" fill="white"/>
<path d="M135.457 30.1598V17.8798C135.457 16.3064 135.817 14.8664 136.537 13.5598C137.257 12.2531 138.297 11.2131 139.657 10.4398C141.017 9.66644 142.657 9.27978 144.577 9.27978C145.511 9.27978 146.444 9.41311 147.377 9.67978C148.311 9.91978 149.177 10.3464 149.977 10.9598C150.777 11.5464 151.417 12.3464 151.897 13.3598H151.937C152.47 12.3464 153.137 11.5464 153.937 10.9598C154.737 10.3464 155.604 9.91978 156.537 9.67978C157.471 9.41311 158.417 9.27978 159.377 9.27978C161.271 9.27978 162.897 9.66644 164.257 10.4398C165.617 11.2131 166.657 12.2531 167.377 13.5598C168.097 14.8664 168.457 16.3064 168.457 17.8798V30.1598H164.777V17.8798C164.777 16.8664 164.537 15.9464 164.057 15.1198C163.577 14.2931 162.924 13.6398 162.097 13.1598C161.297 12.6798 160.377 12.4398 159.337 12.4398C158.324 12.4398 157.391 12.6931 156.537 13.1998C155.684 13.6798 155.004 14.3331 154.497 15.1598C154.017 15.9598 153.777 16.8664 153.777 17.8798V30.1598H150.097V17.8798C150.097 16.8664 149.844 15.9598 149.337 15.1598C148.857 14.3331 148.191 13.6798 147.337 13.1998C146.511 12.6931 145.577 12.4398 144.537 12.4398C143.524 12.4398 142.604 12.6798 141.777 13.1598C140.977 13.6398 140.337 14.2931 139.857 15.1198C139.377 15.9464 139.137 16.8664 139.137 17.8798V30.1598H135.457Z" fill="white"/>
<path d="M184.205 30.1598C181.965 30.1598 179.979 29.7464 178.245 28.9198C176.512 28.0664 175.152 26.8798 174.165 25.3598C173.205 23.8131 172.725 22.0131 172.725 19.9598C172.725 17.9331 173.139 16.1198 173.965 14.5198C174.792 12.8931 175.939 11.6131 177.405 10.6798C178.872 9.74644 180.579 9.27978 182.525 9.27978C184.632 9.27978 186.379 9.73311 187.765 10.6398C189.179 11.5464 190.232 12.7731 190.925 14.3198C191.619 15.8398 191.965 17.5464 191.965 19.4398C191.965 19.7331 191.952 20.0398 191.925 20.3598C191.925 20.6798 191.899 20.9598 191.845 21.1998H176.645C176.779 22.4531 177.192 23.5198 177.885 24.3998C178.579 25.2531 179.459 25.9064 180.525 26.3598C181.619 26.7864 182.819 26.9998 184.125 26.9998H189.445V30.1598H184.205ZM176.605 18.5998H188.245C188.245 18.0931 188.192 17.5598 188.085 16.9998C187.979 16.4131 187.792 15.8531 187.525 15.3198C187.259 14.7598 186.899 14.2664 186.445 13.8398C186.019 13.3864 185.472 13.0264 184.805 12.7598C184.165 12.4931 183.405 12.3598 182.525 12.3598C181.592 12.3598 180.765 12.5464 180.045 12.9198C179.352 13.2664 178.752 13.7464 178.245 14.3598C177.739 14.9464 177.352 15.6131 177.085 16.3598C176.819 17.1064 176.659 17.8531 176.605 18.5998Z" fill="white"/>
</svg>
