<svg width="187" height="187" viewBox="0 0 187 187" fill="none" xmlns="http://www.w3.org/2000/svg">
<g filter="url(#filter0_d_93_479)">
<circle cx="93.5" cy="83.5" r="59.5" fill="url(#paint0_linear_93_479)"/>
<path d="M70.5379 105.312L79.3916 102.381L80.9863 103.15C84.6768 104.927 88.8945 105.874 93.5 105.874C108.733 105.874 119.643 95.0752 119.643 82.0982C119.643 69.0736 108.811 58.3228 93.5 58.3228C78.189 58.3228 67.3571 69.0736 67.3571 82.0982C67.3829 87.0825 69.0371 91.9241 72.0716 95.8966L73.5443 97.8418L70.5379 105.307V105.312ZM67.4574 110.888C67.0631 111.019 66.6392 111.035 66.2358 110.935C65.8325 110.835 65.4664 110.622 65.181 110.322C64.8956 110.022 64.7026 109.647 64.625 109.242C64.5473 108.837 64.5882 108.418 64.7429 108.035L68.5902 98.4946C64.9876 93.7732 63.0261 88.0198 63 82.0982C63 67.7724 74.6859 54 93.5 54C112.314 54 124 67.7724 124 82.0982C124 96.4239 112.192 110.196 93.5 110.196C88.0754 110.196 83.2302 109.038 79.0866 107.041L67.453 110.888H67.4574Z" fill="white"/>
</g>
<defs>
<filter id="filter0_d_93_479" x="0" y="0" width="187" height="187" filterUnits="userSpaceOnUse" color-interpolation-filters="sRGB">
<feFlood flood-opacity="0" result="BackgroundImageFix"/>
<feColorMatrix in="SourceAlpha" type="matrix" values="0 0 0 0 0 0 0 0 0 0 0 0 0 0 0 0 0 0 127 0" result="hardAlpha"/>
<feOffset dy="10"/>
<feGaussianBlur stdDeviation="17"/>
<feComposite in2="hardAlpha" operator="out"/>
<feColorMatrix type="matrix" values="0 0 0 0 0 0 0 0 0 0 0 0 0 0 0 0 0 0 0.25 0"/>
<feBlend mode="normal" in2="BackgroundImageFix" result="effect1_dropShadow_93_479"/>
<feBlend mode="normal" in="SourceGraphic" in2="effect1_dropShadow_93_479" result="shape"/>
</filter>
<linearGradient id="paint0_linear_93_479" x1="41.4375" y1="24" x2="109.296" y2="162.473" gradientUnits="userSpaceOnUse">
<stop stop-color="#FE5923"/>
<stop offset="0.279919" stop-color="#BF5079"/>
<stop offset="0.652933" stop-color="#7844D7"/>
<stop offset="1" stop-color="#004FE8"/>
</linearGradient>
</defs>
</svg>
