<svg width="21" height="32" viewBox="0 0 21 32" fill="none" xmlns="http://www.w3.org/2000/svg">
<path d="M4.22449 6C4.22449 4.4087 4.88097 2.88258 6.04951 1.75736C7.21806 0.632141 8.80294 0 10.4555 0C12.1081 0 13.693 0.632141 14.8615 1.75736C16.0301 2.88258 16.6865 4.4087 16.6865 6V16C16.6865 17.5913 16.0301 19.1174 14.8615 20.2426C13.693 21.3679 12.1081 22 10.4555 22C8.80294 22 7.21806 21.3679 6.04951 20.2426C4.88097 19.1174 4.22449 17.5913 4.22449 16V6Z" fill="#272727"/>
<path d="M1.10894 13C1.38437 13 1.64851 13.1054 1.84327 13.2929C2.03803 13.4804 2.14744 13.7348 2.14744 14V16C2.14744 18.1217 3.02275 20.1566 4.58081 21.6569C6.13887 23.1571 8.25205 24 10.4555 24C12.6589 24 14.7721 23.1571 16.3301 21.6569C17.8882 20.1566 18.7635 18.1217 18.7635 16V14C18.7635 13.7348 18.8729 13.4804 19.0677 13.2929C19.2624 13.1054 19.5266 13 19.802 13C20.0774 13 20.3416 13.1054 20.5363 13.2929C20.7311 13.4804 20.8405 13.7348 20.8405 14V16C20.8405 18.4791 19.8843 20.8698 18.1573 22.7083C16.4302 24.5468 14.0556 25.7021 11.494 25.95V30H17.725C18.0004 30 18.2646 30.1054 18.4593 30.2929C18.6541 30.4804 18.7635 30.7348 18.7635 31C18.7635 31.2652 18.6541 31.5196 18.4593 31.7071C18.2646 31.8946 18.0004 32 17.725 32H3.18595C2.91052 32 2.64637 31.8946 2.45161 31.7071C2.25686 31.5196 2.14744 31.2652 2.14744 31C2.14744 30.7348 2.25686 30.4804 2.45161 30.2929C2.64637 30.1054 2.91052 30 3.18595 30H9.41697V25.95C6.85536 25.7021 4.4807 24.5468 2.75368 22.7083C1.02666 20.8698 0.0704022 18.4791 0.0704346 16V14C0.0704346 13.7348 0.179848 13.4804 0.374606 13.2929C0.569363 13.1054 0.83351 13 1.10894 13Z" fill="#272727"/>
</svg>
